<?xml version="1.0" ?><!DOCTYPE svg  PUBLIC '-//W3C//DTD SVG 1.1//EN'  'http://www.w3.org/Graphics/SVG/1.1/DTD/svg11.dtd'><svg viewBox="0 0 512 512" xmlns="http://www.w3.org/2000/svg" xmlns:xlink="http://www.w3.org/1999/xlink"><style>:root>svg{display:none}:root>svg:target{display:block}</style><svg style="fill-rule:evenodd;clip-rule:evenodd;stroke-linejoin:round;stroke-miterlimit:2" viewBox="0 0 512 512" xml:space="preserve" id="1_(1)" xmlns="http://www.w3.org/2000/svg"><path d="M512 256C512 114.615 397.385 0 256 0S0 114.615 0 256c0 127.777 93.616 233.685 216 252.89V330h-65v-74h65v-56.4c0-64.16 38.219-99.6 96.695-99.6 28.009 0 57.305 5 57.305 5v63h-32.281C305.918 168 296 187.733 296 207.978V256h71l-11.35 74H296v178.89C418.385 489.685 512 383.777 512 256Z" style="fill:#1877f2;fill-rule:nonzero"/><path d="M355.65 330 367 256h-71v-48.022c0-20.245 9.917-39.978 41.719-39.978H370v-63s-29.297-5-57.305-5C254.219 100 216 135.44 216 199.6V256h-65v74h65v178.89a257.912 257.912 0 0 0 40 3.11c13.608 0 26.966-1.065 40-3.11V330h59.65Z" style="fill:#fff;fill-rule:nonzero"/></svg><svg xml:space="preserve" viewBox="0 0 17 17" id="1_(2)" xmlns="http://www.w3.org/2000/svg"><path fill="#FFF" d="m8.052 12.454-2.7-2.521a.572.572 0 0 0-.771 0L0 14.201v.581c0 .542.475.983 1.055.983H15.82c.58 0 1.055-.441 1.055-.983v-.581l-4.581-4.27a.577.577 0 0 0-.771 0l-2.7 2.521c-.213.2-.558.2-.771.002zm5.739-3.918 2.699 2.521c.212.199.385.123.385-.168V5.465c0-.292-.173-.367-.385-.168l-2.699 2.521a.482.482 0 0 0 0 .718zM1.055 1C.475 1 0 1.443 0 1.984v.177l8.011 7.504a.569.569 0 0 0 .768 0l8.096-7.593v-.088c0-.541-.475-.984-1.055-.984H1.055zM0 5.465v5.424c0 .291.173.367.385.168l2.699-2.521a.483.483 0 0 0 0-.719L.385 5.297C.173 5.098 0 5.173 0 5.465z"/></svg><svg xml:space="preserve" viewBox="0 0 17 17" id="1_(3)" xmlns="http://www.w3.org/2000/svg"><g fill="#FFF"><path d="M3.85 1.817c0 1.004-.741 1.817-1.961 1.817C.741 3.635 0 2.822 0 1.817 0 .789.765 0 1.937 0 3.108 0 3.826.789 3.85 1.817zM.096 16.762V5.069H3.73v11.692l-3.634.001zM5.905 8.8c0-1.459-.047-2.678-.095-3.73h3.156l.168 1.626h.071c.479-.766 1.65-1.889 3.609-1.889C15.206 4.806 17 6.408 17 9.852v6.91h-3.635v-6.479c0-1.506-.525-2.534-1.842-2.534-1.004 0-1.602.693-1.863 1.363-.098.238-.12.574-.12.908v6.742H5.905V8.8z"/></g></svg><svg viewBox="0 0 120 120" id="1_(4)" xmlns="http://www.w3.org/2000/svg"><path fill="none" d="M-1-1h582v402H-1z"/><circle stroke-miterlimit="10" stroke-width="3" stroke="#0b5791" fill="none" r="56.64" cy="60" cx="60" class="dcls-1"/><path stroke-linejoin="round" stroke-linecap="round" stroke-width="3" stroke="#0b5791" fill="none" class="dcls-2" d="m46.49 54.51 18.02-10.4M64.51 75.89 46.49 65.48"/><circle stroke-linejoin="round" stroke-linecap="round" stroke-width="3" stroke="#0b5791" fill="none" r="10.97" cy="60" cx="37.215" class="dcls-2"/><circle stroke-linejoin="round" stroke-linecap="round" stroke-width="3" stroke="#0b5791" fill="none" r="10.97" cy="38.63" cx="74.01" class="dcls-2"/><circle stroke-linejoin="round" stroke-linecap="round" stroke-width="3" stroke="#0b5791" fill="none" r="10.97" cy="81.37" cx="74.01" class="dcls-2"/></svg></svg>